<svg width="168" height="69" viewBox="0 0 168 69" fill="none" xmlns="http://www.w3.org/2000/svg">
<path fill-rule="evenodd" clip-rule="evenodd" d="M138.897 15.653C140.43 14.7823 142.315 14.7823 143.851 15.653L155.498 22.2698C157.047 23.1497 158 24.7831 158 26.5492V39.7364C158 41.5056 157.043 43.1359 155.498 44.0158L143.851 50.6326C142.318 51.5033 140.433 51.5033 138.897 50.6326L133.064 47.3165C132.588 47.0448 132.422 46.4427 132.697 45.9703C132.971 45.4979 133.578 45.3342 134.055 45.6059L139.888 48.922C140.81 49.4438 141.941 49.4438 142.86 48.922L154.507 42.3053C155.436 41.7773 156.009 40.7985 156.009 39.7364V26.5492C156.009 25.4871 155.436 24.5083 154.507 23.9803L142.86 17.3636C141.941 16.8418 140.81 16.8418 139.888 17.3636L127.627 24.3292C127.151 24.6009 126.543 24.4373 126.269 23.9649C125.995 23.4925 126.16 22.8904 126.636 22.6187L138.897 15.653Z" fill="#FFDE7C"/>
<path d="M12.1935 31.4153C12.5643 30.9305 13.0722 30.5261 13.714 30.1957C14.3559 29.8653 15.0819 29.6986 15.8888 29.6986C16.8142 29.6986 17.6524 29.9271 18.4095 30.384C19.1791 30.8286 19.7836 31.4585 20.2198 32.2736C20.656 33.0888 20.8741 34.0212 20.8741 35.0772C20.8741 36.1332 20.656 37.0811 20.2198 37.9209C19.7836 38.7484 19.1791 39.3968 18.4095 39.8661C17.6524 40.323 16.8111 40.5515 15.8888 40.5515C15.0787 40.5515 14.3621 40.3941 13.7327 40.076C13.1033 39.7457 12.5892 39.3381 12.1935 38.8564V45.3806H10V29.8715H12.1935V31.4153ZM18.6432 35.0772C18.6432 34.3516 18.4905 33.7279 18.1821 33.2061C17.8861 32.6719 17.4904 32.2706 16.9887 32.005C16.4995 31.7241 15.9761 31.5851 15.409 31.5851C14.8419 31.5851 14.3309 31.7241 13.8293 32.005C13.3401 32.286 12.9444 32.6905 12.636 33.2246C12.34 33.7588 12.1935 34.3887 12.1935 35.1142C12.1935 35.8398 12.34 36.4759 12.636 37.0224C12.9444 37.5565 13.3432 37.9641 13.8293 38.242C14.3309 38.523 14.8575 38.6619 15.409 38.6619C15.9605 38.6619 16.4995 38.523 16.9887 38.242C17.4904 37.9487 17.8861 37.5288 18.1821 36.9823C18.4905 36.4357 18.6432 35.7997 18.6432 35.0741V35.0772Z" fill="#071414"/>
<path d="M22.1235 35.0772C22.1235 34.0212 22.3416 33.0857 22.7779 32.2736C23.2265 31.4585 23.831 30.8286 24.5881 30.384C25.3577 29.9271 26.2052 29.6986 27.1306 29.6986C27.9656 29.6986 28.6885 29.8653 29.3054 30.1957C29.9348 30.5137 30.4365 30.9151 30.8072 31.3968V29.8715H33.0226V40.3817H30.8072V38.8163C30.4365 39.3134 29.9286 39.7271 29.2867 40.0575C28.6449 40.3879 27.9127 40.5546 27.0932 40.5546C26.1834 40.5546 25.3484 40.3261 24.5912 39.8692C23.8341 39.3999 23.2296 38.7484 22.781 37.924C22.3448 37.0841 22.1267 36.1362 22.1267 35.0803L22.1235 35.0772ZM30.8072 35.1173C30.8072 34.3917 30.6546 33.7619 30.3461 33.2277C30.0501 32.6936 29.6606 32.286 29.1715 32.0081C28.6823 31.7271 28.1588 31.5882 27.5917 31.5882C27.0247 31.5882 26.5012 31.7271 26.012 32.0081C25.5229 32.2736 25.1272 32.675 24.8187 33.2092C24.5227 33.731 24.3763 34.3547 24.3763 35.0803C24.3763 35.8059 24.5227 36.4419 24.8187 36.9884C25.1272 37.5349 25.526 37.9549 26.012 38.2482C26.5137 38.5291 27.0403 38.6681 27.5917 38.6681C28.1432 38.6681 28.6823 38.5291 29.1715 38.2482C29.6606 37.9672 30.0501 37.5627 30.3461 37.0286C30.6546 36.4821 30.8072 35.846 30.8072 35.1204V35.1173Z" fill="#071414"/>
<path d="M38.2696 31.6438V37.4639C38.2696 37.8591 38.3599 38.1432 38.5375 38.3223C38.7307 38.489 39.0516 38.5693 39.5003 38.5693H40.8494V40.3817H39.1171C38.1293 40.3817 37.3722 40.1532 36.8456 39.6963C36.3191 39.2393 36.0573 38.4952 36.0573 37.4639V31.6438H34.8048V29.8684H36.0573V27.2563H38.2727V29.8684H40.8525V31.6438H38.2696Z" fill="#071414"/>
<path d="M43.797 28.479C43.3981 28.479 43.0648 28.3462 42.7968 28.0776C42.5288 27.812 42.3917 27.4786 42.3917 27.0865C42.3917 26.6943 42.5257 26.3609 42.7968 26.0953C43.0648 25.8267 43.4013 25.6939 43.797 25.6939C44.1927 25.6939 44.5105 25.8267 44.7784 26.0953C45.0495 26.3609 45.1835 26.6943 45.1835 27.0865C45.1835 27.4786 45.0495 27.812 44.7784 28.0776C44.5105 28.3462 44.1802 28.479 43.797 28.479ZM44.875 29.8684V40.3786H42.6815V29.8684H44.875Z" fill="#071414"/>
<path d="M57.0952 34.8672C57.0952 35.2625 57.0702 35.6175 57.0173 35.9356H48.9131C48.9785 36.7754 49.2932 37.4485 49.8572 37.9579C50.4211 38.4674 51.116 38.7206 51.9354 38.7206C53.1163 38.7206 53.9513 38.2297 54.4374 37.2509H56.8054C56.4845 38.2173 55.9018 39.0139 55.0543 39.6345C54.2193 40.2459 53.1817 40.5515 51.9354 40.5515C50.9228 40.5515 50.0099 40.3292 49.2029 39.8846C48.4083 39.4276 47.7789 38.7916 47.3147 37.9765C46.866 37.149 46.6417 36.1949 46.6417 35.1143C46.6417 34.0336 46.8598 33.0857 47.296 32.2706C47.7447 31.4431 48.3678 30.807 49.1624 30.3624C49.9725 29.9178 50.8947 29.6955 51.9354 29.6955C52.9761 29.6955 53.8298 29.9116 54.6119 30.3439C55.3939 30.7762 56.0046 31.3875 56.4408 32.1748C56.8771 32.9498 57.0952 33.8483 57.0952 34.8642V34.8672ZM54.8019 34.1849C54.7895 33.3821 54.4997 32.7399 53.9357 32.2582C53.3718 31.7735 52.6707 31.5326 51.8388 31.5326C51.0817 31.5326 50.4336 31.7735 49.8946 32.2582C49.3555 32.7275 49.0346 33.3698 48.9318 34.1849H54.8019Z" fill="#071414"/>
<path d="M64.221 29.7017C65.056 29.7017 65.8007 29.8746 66.455 30.2173C67.1218 30.56 67.6421 31.0695 68.0129 31.7426C68.3837 32.4157 68.5706 33.2308 68.5706 34.1849V40.3848H66.3958V34.5091C66.3958 33.5673 66.159 32.8479 65.6823 32.3539C65.2087 31.8445 64.5606 31.5913 63.738 31.5913C62.9155 31.5913 62.2611 31.8445 61.7751 32.3539C61.3015 32.851 61.0616 33.5673 61.0616 34.5091V40.3848H58.868V29.8746H61.0616V31.0756C61.4199 30.6434 61.8779 30.3068 62.4294 30.066C62.9933 29.8252 63.5916 29.7047 64.221 29.7047V29.7017Z" fill="#071414"/>
<path d="M73.5465 31.6438V37.4639C73.5465 37.8591 73.6369 38.1432 73.8145 38.3223C74.0077 38.489 74.3286 38.5693 74.7773 38.5693H76.1264V40.3817H74.394C73.4063 40.3817 72.6492 40.1532 72.1226 39.6963C71.596 39.2393 71.3343 38.4952 71.3343 37.4639V31.6438H70.0818V29.8684H71.3343V27.2563H73.5496V29.8684H76.1295V31.6438H73.5465Z" fill="#071414"/>
<path d="M81.9997 40.5546C81.1646 40.5546 80.4137 40.4095 79.747 40.1162C79.0926 39.8105 78.5723 39.4029 78.1891 38.8966C77.8027 38.3748 77.6002 37.7974 77.5721 37.1613H79.8435C79.8809 37.6059 80.0928 37.9826 80.4792 38.2883C80.878 38.5816 81.3703 38.7267 81.9623 38.7267C82.5543 38.7267 83.0528 38.6125 83.3862 38.384C83.732 38.1432 83.9065 37.8375 83.9065 37.467C83.9065 37.0718 83.7134 36.7816 83.3301 36.5901C82.9593 36.3987 82.3611 36.1887 81.5385 35.9602C80.744 35.7441 80.0959 35.5342 79.5943 35.3304C79.0926 35.1266 78.6564 34.8147 78.2856 34.3948C77.9273 33.9749 77.7466 33.4222 77.7466 32.7337C77.7466 32.1748 77.9149 31.6654 78.2483 31.2084C78.5816 30.7391 79.0584 30.3686 79.6722 30.103C80.3016 29.8375 81.0213 29.7017 81.8283 29.7017C83.0341 29.7017 84.0031 30.0073 84.7353 30.6187C85.48 31.2177 85.8788 32.0359 85.9287 33.0795H83.7352C83.6978 32.6102 83.5046 32.2335 83.1587 31.9525C82.8129 31.6716 82.3424 31.5326 81.7535 31.5326C81.1646 31.5326 80.7347 31.6407 80.4262 31.8568C80.1177 32.0729 79.9651 32.3601 79.9651 32.7152C79.9651 32.9961 80.0679 33.2308 80.2735 33.4222C80.4792 33.6137 80.7284 33.765 81.0244 33.8792C81.3204 33.9811 81.7566 34.1139 82.3331 34.2806C83.1027 34.4844 83.732 34.6943 84.2212 34.9105C84.7229 35.1142 85.1528 35.4199 85.5112 35.8275C85.8695 36.235 86.0564 36.7754 86.0689 37.4485C86.0689 38.0475 85.9006 38.5816 85.5672 39.0509C85.2339 39.5203 84.7571 39.8908 84.1433 40.1563C83.5389 40.4249 82.8285 40.5577 82.0059 40.5577H81.9997V40.5546Z" fill="#071414"/>
<path d="M89.6832 26.2621V40.3786H88.3341V26.2621H89.6832Z" fill="#697171"/>
<path d="M93.0233 28.0035C92.7554 28.0035 92.5217 27.9077 92.3316 27.7163C92.1384 27.5249 92.0419 27.2902 92.0419 27.0092C92.0419 26.7283 92.1384 26.4998 92.3316 26.3238C92.5248 26.1324 92.7554 26.0367 93.0233 26.0367C93.2913 26.0367 93.525 26.1324 93.715 26.3238C93.9082 26.5029 94.0048 26.7314 94.0048 27.0092C94.0048 27.2871 93.9082 27.5249 93.715 27.7163C93.5219 27.9077 93.2913 28.0035 93.0233 28.0035ZM93.6995 29.9672V40.3848H92.3503V29.9672H93.6995Z" fill="#697171"/>
<path d="M102.14 40.3817L97.8092 35.7071V40.3817H96.46V26.2651H97.8092V34.6202L102.044 29.9641H103.932L98.9464 35.1544L103.972 40.3817H102.14Z" fill="#697171"/>
<path d="M114.451 34.6418C114.451 35.0988 114.438 35.4508 114.413 35.6916H105.692C105.73 36.479 105.923 37.1551 106.269 37.714C106.614 38.2729 107.069 38.6989 107.636 38.9923C108.2 39.2732 108.817 39.4122 109.484 39.4122C110.356 39.4122 111.089 39.2022 111.678 38.7823C112.282 38.3624 112.678 37.7974 112.871 37.0841H114.295C114.039 38.103 113.488 38.9336 112.64 39.582C111.805 40.2181 110.752 40.5361 109.481 40.5361C108.493 40.5361 107.608 40.3199 106.826 39.8877C106.044 39.4431 105.427 38.8194 104.979 38.0197C104.542 37.2045 104.324 36.2566 104.324 35.176C104.324 34.0953 104.542 33.1474 104.979 32.3323C105.415 31.5172 106.026 30.8966 106.808 30.4612C107.59 30.0289 108.484 29.8128 109.484 29.8128C110.484 29.8128 111.357 30.0289 112.104 30.4612C112.862 30.8935 113.438 31.4801 113.837 32.215C114.248 32.9406 114.454 33.7464 114.454 34.6387H114.451V34.6418ZM113.083 34.6048C113.095 33.8298 112.936 33.169 112.603 32.6194C112.282 32.0729 111.84 31.6592 111.276 31.3782C110.712 31.0973 110.095 30.9583 109.428 30.9583C108.425 30.9583 107.574 31.2763 106.867 31.9124C106.159 32.5484 105.77 33.4438 105.692 34.6017H113.083V34.6048Z" fill="#697171"/>
<path d="M129.758 29.6584C131.067 29.6584 132.12 30.0598 132.915 30.8595C133.725 31.6468 134.127 32.7553 134.127 34.1787V40.3786H131.432V34.5399C131.432 33.7125 131.22 33.0826 130.796 32.6503C130.372 32.2057 129.796 31.9834 129.064 31.9834C128.331 31.9834 127.749 32.2057 127.313 32.6503C126.889 33.0826 126.677 33.7125 126.677 34.5399V40.3786H123.982V34.5399C123.982 33.7125 123.77 33.0826 123.346 32.6503C122.922 32.2057 122.346 31.9834 121.614 31.9834C120.882 31.9834 120.28 32.2057 119.844 32.6503C119.42 33.0826 119.208 33.7125 119.208 34.5399V40.3786H116.513V29.8097H119.208V31.088C119.554 30.6434 119.997 30.2945 120.536 30.0382C121.087 29.785 121.692 29.6553 122.346 29.6553C123.181 29.6553 123.923 29.8344 124.58 30.1895C125.234 30.5322 125.742 31.0293 126.101 31.6777C126.446 31.0664 126.948 30.5785 127.602 30.208C128.269 29.8406 128.989 29.6553 129.758 29.6553V29.6584Z" fill="#071414"/>
<path d="M146.409 34.8672C146.409 35.2501 146.384 35.5928 146.331 35.8985H138.536C138.601 36.6611 138.869 37.2601 139.343 37.6924C139.816 38.1247 140.402 38.3408 141.094 38.3408C142.094 38.3408 142.807 37.9147 143.231 37.0625H146.138C145.83 38.0814 145.241 38.9182 144.368 39.582C143.496 40.2304 142.424 40.5546 141.153 40.5546C140.125 40.5546 139.202 40.3323 138.38 39.8877C137.57 39.4307 136.937 38.7885 136.473 37.961C136.024 37.1336 135.8 36.1795 135.8 35.0988C135.8 34.0181 136.024 33.0456 136.473 32.2181C136.922 31.3906 137.551 30.7545 138.358 30.3099C139.168 29.8653 140.097 29.643 141.15 29.643C142.203 29.643 143.069 29.8591 143.864 30.2914C144.674 30.7237 145.294 31.3412 145.733 32.1409C146.182 32.9282 146.406 33.8391 146.406 34.8703H146.409V34.8672ZM143.614 34.1077C143.602 33.4222 143.353 32.8726 142.864 32.4682C142.377 32.0483 141.779 31.8383 141.075 31.8383C140.408 31.8383 139.844 32.0421 139.38 32.4496C138.931 32.8449 138.654 33.3975 138.551 34.1108H143.614V34.1077Z" fill="#071414"/>
<path d="M149.366 28.411C149.366 28.9236 149.182 29.3682 148.836 29.7202C148.469 30.0938 148.051 30.2574 147.543 30.2574C147.036 30.2574 146.596 30.0722 146.25 29.7202C145.88 29.3466 145.721 28.9267 145.721 28.411C145.721 27.8954 145.905 27.4539 146.25 27.1019C146.618 26.7283 147.036 26.5646 147.543 26.5646C148.051 26.5646 148.491 26.753 148.836 27.1019C149.207 27.4508 149.366 27.8954 149.366 28.411ZM148.974 28.411C148.974 28.0127 148.833 27.6638 148.556 27.3829C148.279 27.1019 147.933 26.9629 147.54 26.9629C147.148 26.9629 146.802 27.1019 146.525 27.3829C146.247 27.6638 146.107 28.0127 146.107 28.411C146.107 28.8093 146.247 29.1582 146.525 29.4392C146.802 29.7202 147.148 29.8591 147.54 29.8591C147.933 29.8591 148.279 29.7202 148.556 29.4392C148.833 29.1366 148.974 28.8093 148.974 28.411ZM148.556 29.2786H147.98L147.428 28.6025H147.244V29.2786H146.783V27.4323H147.475C147.612 27.4323 147.705 27.4323 147.774 27.457C147.843 27.457 147.936 27.5033 148.005 27.528C148.098 27.5743 148.142 27.6206 148.188 27.6916C148.235 27.7626 148.257 27.8306 148.257 27.9479C148.257 28.0868 148.21 28.2042 148.142 28.2752C148.073 28.3678 147.958 28.4388 147.843 28.4851L148.556 29.2786ZM147.774 27.9942C147.774 27.9479 147.774 27.9232 147.752 27.8769C147.73 27.8522 147.705 27.8306 147.659 27.8059C147.612 27.7812 147.59 27.7812 147.543 27.7595H147.244V28.2721H147.36C147.428 28.2721 147.5 28.2721 147.543 28.2474C147.59 28.2474 147.637 28.2227 147.681 28.2011C147.705 28.1764 147.727 28.1548 147.749 28.1084C147.771 28.0837 147.771 28.0374 147.771 27.9911L147.774 27.9942Z" fill="#071414"/>
<path d="M38.2228 53.5812V48.604H39.977C40.3758 48.604 40.703 48.675 40.9616 48.817C41.2202 48.9591 41.4103 49.1474 41.5349 49.3852C41.6595 49.6229 41.7219 49.8915 41.7219 50.1879C41.7219 50.4844 41.6595 50.753 41.5349 50.9938C41.4103 51.2346 41.2202 51.4261 40.9616 51.5681C40.703 51.7101 40.3758 51.7812 39.9801 51.7812H38.74V51.2223H39.949C40.22 51.2223 40.4382 51.176 40.6033 51.0864C40.7684 50.9969 40.8868 50.8734 40.9616 50.7159C41.0364 50.5585 41.0738 50.3825 41.0738 50.1879C41.0738 49.9934 41.0364 49.8174 40.9616 49.6631C40.8868 49.5087 40.7684 49.3852 40.6002 49.2987C40.435 49.2092 40.2138 49.1659 39.9427 49.1659H38.8771V53.5843H38.2228V53.5812Z" fill="black"/>
<path d="M43.9372 53.6584C43.5882 53.6584 43.2829 53.5782 43.0211 53.4176C42.7594 53.257 42.5538 53.0317 42.4073 52.7414C42.2609 52.4512 42.1861 52.1146 42.1861 51.7318C42.1861 51.3489 42.2609 51.0031 42.4073 50.7129C42.5538 50.4226 42.7594 50.1972 43.0211 50.0367C43.2829 49.8761 43.5882 49.7958 43.9372 49.7958C44.2862 49.7958 44.5946 49.8761 44.8595 50.0367C45.1243 50.1972 45.3268 50.4226 45.4764 50.7129C45.6228 51.0031 45.6976 51.3427 45.6976 51.7318C45.6976 52.1208 45.6228 52.4512 45.4764 52.7414C45.3299 53.0317 45.1243 53.257 44.8595 53.4176C44.5946 53.5782 44.2893 53.6584 43.9372 53.6584ZM43.9372 53.1212C44.1958 53.1212 44.4077 53.0564 44.5759 52.9267C44.7442 52.797 44.8657 52.6272 44.9467 52.4172C45.0277 52.2073 45.0682 51.9788 45.0682 51.7349C45.0682 51.4909 45.0277 51.2594 44.9467 51.0463C44.8657 50.8333 44.7442 50.6635 44.5759 50.5307C44.4077 50.401 44.1958 50.3362 43.9372 50.3362C43.6786 50.3362 43.4698 50.401 43.3047 50.5307C43.1395 50.6604 43.018 50.8333 42.937 51.0432C42.856 51.2532 42.8155 51.4848 42.8155 51.7349C42.8155 51.985 42.856 52.2073 42.937 52.4172C43.018 52.6272 43.1395 52.797 43.3047 52.9267C43.4698 53.0564 43.6817 53.1212 43.9372 53.1212Z" fill="black"/>
<path d="M47.1464 53.5812L45.9811 49.8483H46.6386L47.1059 51.4786C47.1714 51.7009 47.2399 51.9541 47.3116 52.235C47.3832 52.516 47.458 52.8371 47.5266 53.1922H47.4206C47.4892 52.8526 47.5577 52.5407 47.6294 52.2567C47.7011 51.9726 47.7696 51.7132 47.835 51.4786L48.2962 49.8483H48.9567L49.4116 51.4786C49.4771 51.7071 49.5425 51.9633 49.6141 52.2443C49.6827 52.5253 49.7544 52.8402 49.8229 53.1922H49.7139C49.7886 52.8464 49.8603 52.5345 49.932 52.2536C50.0036 51.9726 50.0722 51.7132 50.1407 51.4817L50.6081 49.8514H51.2655L50.1002 53.5843H49.4864L48.9879 51.8954C48.938 51.7225 48.8882 51.5496 48.8414 51.3705C48.7947 51.1914 48.7448 51.0093 48.7012 50.824C48.6545 50.6357 48.6078 50.4473 48.561 50.2528H48.6981C48.6514 50.4442 48.6046 50.6326 48.5579 50.8209C48.5112 51.0093 48.4644 51.1945 48.4146 51.3736C48.3647 51.5527 48.318 51.7287 48.2681 51.8954L47.7696 53.5843H47.1558L47.1464 53.5812Z" fill="black"/>
<path d="M53.4154 53.6584C53.0446 53.6584 52.7237 53.5782 52.4557 53.4176C52.1878 53.257 51.979 53.0347 51.8326 52.7476C51.6861 52.4604 51.6145 52.1239 51.6145 51.741C51.6145 51.3582 51.6862 51.0216 51.8264 50.7283C51.9697 50.4381 52.1691 50.2096 52.4308 50.0428C52.6894 49.8792 52.9948 49.7958 53.3438 49.7958C53.5463 49.7958 53.7488 49.8298 53.9482 49.8946C54.1476 49.9595 54.3252 50.0675 54.4872 50.2127C54.6493 50.3578 54.777 50.5492 54.8736 50.79C54.9702 51.0278 55.0169 51.318 55.0169 51.6638V51.9139H52.032V51.4076H54.6835L54.3938 51.5959C54.3938 51.352 54.3533 51.1328 54.2754 50.9444C54.1975 50.753 54.0791 50.6048 53.9233 50.4967C53.7675 50.3887 53.5743 50.3362 53.3438 50.3362C53.1132 50.3362 52.9138 50.3917 52.7486 50.5029C52.5835 50.6141 52.4589 50.7561 52.3716 50.9352C52.2844 51.1142 52.2408 51.3026 52.2408 51.5033V51.8398C52.2408 52.1146 52.2906 52.3493 52.3872 52.5438C52.4838 52.7383 52.624 52.8834 52.8016 52.9823C52.9792 53.0811 53.1848 53.1305 53.4185 53.1305C53.5712 53.1305 53.7083 53.1088 53.8298 53.0656C53.9544 53.0224 54.0604 52.9606 54.1507 52.8742C54.2411 52.7877 54.3096 52.6828 54.3564 52.5562L54.9546 52.7167C54.8954 52.9051 54.7957 53.0687 54.6524 53.2107C54.5091 53.3528 54.3346 53.4639 54.1258 53.5442C53.9171 53.6245 53.6803 53.6646 53.4154 53.6646V53.6584Z" fill="black"/>
<path d="M55.7678 53.5813V49.8483H56.3661V50.4226H56.4066C56.4782 50.2343 56.6029 50.0799 56.7867 49.9657C56.9674 49.8514 57.1731 49.7928 57.4036 49.7928C57.4504 49.7928 57.5033 49.7928 57.5656 49.7958C57.628 49.7989 57.6778 49.7989 57.7152 49.802V50.4072C57.6965 50.4041 57.6498 50.3948 57.5781 50.3887C57.5033 50.3794 57.4254 50.3763 57.3444 50.3763C57.1606 50.3763 56.9955 50.4134 56.8521 50.4875C56.7057 50.5616 56.5935 50.6635 56.5094 50.7962C56.4253 50.929 56.3848 51.0772 56.3848 51.2439V53.5813H55.7647H55.7678Z" fill="black"/>
<path d="M59.8589 53.6584C59.4881 53.6584 59.1672 53.5782 58.8992 53.4176C58.6312 53.257 58.4225 53.0347 58.276 52.7476C58.1296 52.4604 58.0579 52.1239 58.0579 51.741C58.0579 51.3582 58.1296 51.0216 58.2698 50.7283C58.4131 50.4381 58.6125 50.2096 58.8743 50.0428C59.1329 49.8792 59.4382 49.7958 59.7872 49.7958C59.9897 49.7958 60.1923 49.8298 60.3917 49.8946C60.5911 49.9595 60.7687 50.0675 60.9307 50.2127C61.0927 50.3578 61.2205 50.5492 61.3171 50.79C61.4136 51.0278 61.4604 51.318 61.4604 51.6638V51.9139H58.4755V51.4076H61.127L60.8372 51.5959C60.8372 51.352 60.7967 51.1328 60.7188 50.9444C60.6409 50.753 60.5225 50.6048 60.3667 50.4967C60.2109 50.3887 60.0178 50.3362 59.7872 50.3362C59.5566 50.3362 59.3572 50.3917 59.1921 50.5029C59.0269 50.6141 58.9023 50.7561 58.8151 50.9352C58.7278 51.1142 58.6842 51.3026 58.6842 51.5033V51.8398C58.6842 52.1146 58.7341 52.3493 58.8307 52.5438C58.9272 52.7383 59.0675 52.8834 59.2451 52.9823C59.4227 53.0811 59.6283 53.1305 59.862 53.1305C60.0147 53.1305 60.1517 53.1088 60.2733 53.0656C60.3979 53.0224 60.5038 52.9606 60.5942 52.8742C60.6845 52.7877 60.7531 52.6828 60.7998 52.5562L61.3981 52.7167C61.3389 52.9051 61.2392 53.0687 61.0958 53.2107C60.9525 53.3528 60.778 53.4639 60.5693 53.5442C60.3605 53.6245 60.1237 53.6646 59.8589 53.6646V53.6584Z" fill="black"/>
<path d="M63.6352 53.6584C63.3174 53.6584 63.0339 53.5782 62.7908 53.4207C62.5478 53.2632 62.3546 53.0378 62.2175 52.7507C62.0804 52.4604 62.0119 52.1177 62.0119 51.7225C62.0119 51.3273 62.0804 50.9876 62.2206 50.6974C62.3577 50.4103 62.5509 50.188 62.7971 50.0305C63.0432 49.873 63.3236 49.7958 63.6414 49.7958C63.8907 49.7958 64.0901 49.836 64.2365 49.9162C64.383 49.9965 64.4952 50.0861 64.5762 50.188C64.6541 50.2898 64.7164 50.3732 64.7569 50.4411H64.8036V48.6009H65.4237V53.5782H64.8254V53.0008H64.7569C64.7164 53.0687 64.6541 53.1551 64.5731 53.2601C64.492 53.362 64.3768 53.4546 64.2303 53.538C64.0839 53.6183 63.8876 53.6615 63.6414 53.6615L63.6352 53.6584ZM63.7287 53.1212C63.9624 53.1212 64.1587 53.0625 64.3207 52.9421C64.4827 52.8217 64.6011 52.658 64.6852 52.445C64.7662 52.235 64.8099 51.9911 64.8099 51.7132C64.8099 51.4353 64.7693 51.1976 64.6883 50.9907C64.6073 50.7839 64.4858 50.6233 64.3269 50.5091C64.1649 50.3948 63.9686 50.3362 63.7318 50.3362C63.495 50.3362 63.2862 50.3979 63.1242 50.5183C62.9622 50.6418 62.8407 50.8055 62.7628 51.0154C62.6849 51.2254 62.6413 51.457 62.6413 51.7163C62.6413 51.9757 62.6818 52.2134 62.7628 52.4265C62.8438 52.6395 62.9653 52.8093 63.1273 52.9328C63.2893 53.0594 63.4919 53.1212 63.7287 53.1212Z" fill="black"/>
<path d="M69.8543 53.6584C69.6113 53.6584 69.415 53.6183 69.2654 53.5349C69.1159 53.4547 69.0006 53.362 68.9227 53.257C68.8417 53.1521 68.7794 53.0656 68.7357 52.9977H68.6672V53.5751H68.069V48.5978H68.689V50.4381H68.7357C68.7794 50.3701 68.8386 50.2868 68.9165 50.1849C68.9944 50.083 69.1065 49.9934 69.253 49.9132C69.3994 49.8329 69.5988 49.7927 69.8481 49.7927C70.169 49.7927 70.4526 49.8699 70.6956 50.0274C70.9386 50.1818 71.1318 50.4041 71.2689 50.6943C71.406 50.9815 71.4776 51.3242 71.4776 51.7194C71.4776 52.1146 71.4091 52.4574 71.272 52.7476C71.1349 53.0378 70.9448 53.2601 70.6987 53.4176C70.4525 53.5751 70.1721 53.6553 69.8512 53.6553L69.8543 53.6584ZM69.7608 53.1212C70.0008 53.1212 70.2033 53.0594 70.3653 52.9328C70.5273 52.8063 70.6488 52.6364 70.7299 52.4265C70.8109 52.2134 70.8514 51.9788 70.8514 51.7163C70.8514 51.4539 70.8109 51.2254 70.7299 51.0154C70.6488 50.8086 70.5273 50.6418 70.3684 50.5183C70.2095 50.3948 70.0039 50.3362 69.7608 50.3362C69.5178 50.3362 69.3278 50.3948 69.1657 50.5091C69.0037 50.6264 68.8853 50.787 68.8043 50.9907C68.7233 51.1976 68.6828 51.4384 68.6828 51.7132C68.6828 51.988 68.7233 52.232 68.8074 52.445C68.8884 52.658 69.0131 52.8217 69.172 52.9421C69.3309 53.0625 69.5303 53.1212 69.7608 53.1212Z" fill="black"/>
<path d="M72.0011 54.9336L72.16 54.4118L72.2254 54.4272C72.3501 54.4581 72.4653 54.4674 72.5682 54.4519C72.671 54.4365 72.7645 54.3871 72.8455 54.3037C72.9265 54.2204 73.0013 54.0876 73.0605 53.9085L73.1695 53.5967L71.702 49.8421H72.3781L73.1976 52.056C73.2848 52.2875 73.3565 52.516 73.4188 52.7445C73.478 52.9699 73.5403 53.1922 73.6088 53.4052H73.3814C73.4468 53.1922 73.5123 52.9699 73.5715 52.7414C73.6307 52.5129 73.7054 52.2844 73.7896 52.056L74.6152 49.8421H75.2883L73.5995 54.1339C73.5216 54.3315 73.4281 54.4952 73.3191 54.6218C73.21 54.7514 73.0823 54.8441 72.9389 54.9058C72.7956 54.9676 72.6305 54.9984 72.4498 54.9984C72.3407 54.9984 72.2441 54.9892 72.1631 54.9737C72.0821 54.9583 72.026 54.9429 71.9949 54.9274L72.0011 54.9336Z" fill="black"/>
<path d="M77.7092 53.5812V48.604H80.8063V49.1659H78.3635V50.8703H80.5726V51.4323H78.3635V53.5843H77.7092V53.5812Z" fill="black"/>
<path d="M82.6696 53.6276C82.4109 53.6276 82.1835 53.5751 81.9872 53.4732C81.7909 53.3713 81.6382 53.2138 81.5292 53.0039C81.4201 52.7939 81.3672 52.5345 81.3672 52.2196V49.8483H81.9872V52.1702C81.9872 52.4574 82.0651 52.6828 82.2209 52.8464C82.3767 53.01 82.5885 53.0903 82.8565 53.0903C83.0403 53.0903 83.2055 53.0502 83.3488 52.973C83.4952 52.8958 83.6105 52.7816 83.6947 52.6303C83.7788 52.479 83.8224 52.2999 83.8224 52.0868V49.8483H84.4456V53.5812H83.8473V52.6766H83.9283C83.8099 53.0255 83.6417 53.2725 83.4205 53.4145C83.2024 53.5565 82.95 53.6276 82.6696 53.6276Z" fill="black"/>
<path d="M85.1653 53.5813V53.1336L87.3214 50.4412V50.4041H85.2339V49.8452H88.116V50.3238L86.0221 52.9853V53.0224H88.1845V53.5813H85.1622H85.1653Z" fill="black"/>
<path d="M90.4403 53.6584C90.0696 53.6584 89.7486 53.5782 89.4807 53.4176C89.2127 53.257 89.004 53.0347 88.8575 52.7476C88.7111 52.4604 88.6394 52.1239 88.6394 51.741C88.6394 51.3582 88.7111 51.0216 88.8513 50.7283C88.9946 50.4381 89.194 50.2096 89.4557 50.0428C89.7175 49.8761 90.0197 49.7958 90.3687 49.7958C90.5712 49.7958 90.7737 49.8298 90.9731 49.8946C91.1726 49.9595 91.3501 50.0675 91.5122 50.2127C91.6742 50.3578 91.8019 50.5492 91.8985 50.79C91.9951 51.0278 92.0419 51.318 92.0419 51.6638V51.9139H89.0569V51.4076H91.7085L91.4187 51.5959C91.4187 51.352 91.3782 51.1328 91.3003 50.9444C91.2224 50.753 91.104 50.6048 90.9482 50.4967C90.7924 50.3887 90.5992 50.3362 90.3687 50.3362C90.1381 50.3362 89.9387 50.3917 89.7736 50.5029C89.6084 50.6141 89.4838 50.7561 89.3966 50.9352C89.3093 51.1142 89.2657 51.3026 89.2657 51.5033V51.8398C89.2657 52.1146 89.3155 52.3493 89.4121 52.5438C89.5087 52.7383 89.6489 52.8834 89.8265 52.9823C90.0041 53.0811 90.2098 53.1305 90.4435 53.1305C90.5961 53.1305 90.7332 53.1088 90.8547 53.0656C90.9794 53.0224 91.0853 52.9606 91.1757 52.8742C91.266 52.7877 91.3346 52.6828 91.3813 52.5562L91.9795 52.7167C91.9203 52.9051 91.8206 53.0687 91.6773 53.2107C91.534 53.3528 91.3595 53.4639 91.1507 53.5442C90.942 53.6245 90.7052 53.6646 90.4403 53.6646V53.6584Z" fill="black"/>
<path d="M94.5563 53.5812V48.604H95.2106V50.7561H97.8995V48.604H98.5539V53.5812H97.8995V51.318H95.2106V53.5812H94.5563Z" fill="black"/>
<path d="M101.177 53.6584C100.807 53.6584 100.486 53.5782 100.218 53.4176C99.9497 53.257 99.741 53.0347 99.5945 52.7476C99.4481 52.4604 99.3764 52.1239 99.3764 51.741C99.3764 51.3582 99.4481 51.0216 99.5883 50.7283C99.7316 50.4381 99.931 50.2096 100.193 50.0428C100.451 49.8792 100.757 49.7958 101.106 49.7958C101.308 49.7958 101.511 49.8298 101.71 49.8946C101.91 49.9595 102.087 50.0675 102.249 50.2127C102.411 50.3578 102.539 50.5492 102.636 50.79C102.732 51.0309 102.779 51.318 102.779 51.6638V51.9139H99.7939V51.4076H102.442L102.153 51.5959C102.153 51.352 102.112 51.1328 102.034 50.9444C101.956 50.753 101.838 50.6048 101.682 50.4967C101.526 50.3887 101.333 50.3362 101.103 50.3362C100.872 50.3362 100.673 50.3917 100.507 50.5029C100.342 50.6141 100.218 50.7561 100.13 50.9352C100.043 51.1142 99.9996 51.3026 99.9996 51.5033V51.8398C99.9996 52.1146 100.049 52.3493 100.146 52.5438C100.243 52.7383 100.383 52.8834 100.56 52.9823C100.738 53.0811 100.944 53.1305 101.177 53.1305C101.327 53.1305 101.467 53.1088 101.589 53.0656C101.71 53.0224 101.819 52.9606 101.91 52.8742C102 52.7877 102.068 52.6828 102.115 52.5562L102.713 52.7167C102.654 52.9051 102.555 53.0687 102.411 53.2107C102.268 53.3528 102.093 53.4639 101.885 53.5442C101.676 53.6245 101.439 53.6646 101.174 53.6646L101.177 53.6584Z" fill="black"/>
<path d="M104.58 53.6677C104.337 53.6677 104.116 53.6245 103.919 53.5349C103.72 53.4454 103.564 53.3157 103.446 53.1428C103.327 52.973 103.271 52.763 103.271 52.5191C103.271 52.3061 103.315 52.1332 103.402 51.9973C103.489 51.8645 103.605 51.7596 103.751 51.6824C103.897 51.6052 104.056 51.5496 104.234 51.5095C104.412 51.4724 104.589 51.4415 104.767 51.4199C104.997 51.3921 105.181 51.3674 105.328 51.352C105.471 51.3366 105.58 51.3088 105.649 51.2717C105.717 51.2347 105.754 51.1698 105.754 51.0772V51.0587C105.754 50.9012 105.723 50.7715 105.664 50.6635C105.605 50.5554 105.515 50.472 105.396 50.4134C105.278 50.3547 105.128 50.3269 104.951 50.3269C104.773 50.3269 104.611 50.3547 104.48 50.4103C104.349 50.4658 104.243 50.5369 104.162 50.6202C104.081 50.7036 104.019 50.79 103.978 50.8765L103.383 50.6851C103.483 50.4566 103.614 50.2806 103.782 50.1509C103.95 50.0243 104.134 49.9317 104.337 49.8792C104.539 49.8267 104.739 49.7989 104.935 49.7989C105.063 49.7989 105.209 49.8144 105.374 49.8452C105.539 49.8761 105.695 49.9348 105.848 50.0243C106.001 50.1139 106.125 50.2466 106.225 50.4195C106.325 50.5955 106.374 50.8271 106.374 51.1204V53.5812H105.767V53.0749H105.726C105.683 53.1613 105.614 53.2509 105.518 53.3435C105.421 53.4361 105.296 53.5133 105.144 53.5751C104.991 53.6368 104.804 53.6677 104.586 53.6677H104.58ZM104.686 53.1366C104.916 53.1366 105.109 53.0934 105.268 53.0069C105.427 52.9205 105.546 52.8063 105.63 52.6673C105.711 52.5284 105.754 52.3833 105.754 52.232V51.7132C105.73 51.741 105.673 51.7688 105.589 51.7904C105.505 51.8151 105.409 51.8337 105.3 51.8522C105.19 51.8707 105.085 51.8861 104.982 51.8985C104.879 51.9108 104.798 51.9201 104.739 51.9263C104.589 51.9448 104.449 51.9757 104.321 52.0189C104.19 52.0621 104.087 52.127 104.01 52.2103C103.932 52.2937 103.891 52.408 103.891 52.55C103.891 52.6797 103.925 52.7877 103.994 52.8742C104.063 52.9606 104.156 53.0255 104.274 53.0718C104.393 53.115 104.53 53.1397 104.683 53.1397L104.686 53.1366Z" fill="black"/>
<path d="M107.932 48.604V53.5812H107.312V48.604H107.932Z" fill="black"/>
<path d="M110.45 49.8452V50.3609H108.462V49.8452H110.45ZM109.042 48.9591H109.662V52.6117C109.662 52.7785 109.696 52.902 109.768 52.9761C109.836 53.0533 109.955 53.0903 110.117 53.0903C110.154 53.0903 110.207 53.0872 110.266 53.078C110.325 53.0687 110.381 53.0594 110.434 53.0502L110.562 53.5565C110.497 53.5782 110.425 53.5967 110.344 53.6059C110.263 53.6183 110.182 53.6214 110.101 53.6214C109.768 53.6214 109.509 53.5349 109.325 53.3651C109.141 53.1953 109.048 52.9575 109.048 52.6519V48.9529L109.042 48.9591Z" fill="black"/>
<path d="M111.752 51.3427V53.5812H111.132V48.604H111.752V50.7499H111.646C111.765 50.4041 111.93 50.1602 112.148 50.015C112.363 49.8699 112.619 49.7989 112.908 49.7989C113.167 49.7989 113.394 49.8514 113.591 49.9533C113.787 50.0552 113.94 50.2126 114.049 50.4195C114.158 50.6264 114.211 50.8888 114.211 51.2069V53.5781H113.588V51.2563C113.588 50.9691 113.51 50.7437 113.354 50.5801C113.198 50.4164 112.989 50.3362 112.718 50.3362C112.534 50.3362 112.369 50.3763 112.223 50.4535C112.076 50.5307 111.961 50.6449 111.877 50.7931C111.793 50.9413 111.749 51.1235 111.749 51.3365L111.752 51.3427Z" fill="black"/>
<path d="M114.398 48.6596V48.4898H115.276V48.6596H114.398ZM114.734 49.5766V48.5886H114.937V49.5766H114.734ZM115.469 49.5766V48.4898H115.669V49.5766H115.469ZM115.999 49.5766L115.507 48.4898H115.713L116.052 49.2802L116.395 48.4898H116.597L116.108 49.5766H115.999ZM116.435 49.5766V48.4898H116.638V49.5766H116.435Z" fill="black"/>
</svg>
